<?xml version="1.0" encoding="utf-8"?>
<!-- Generator: Adobe Illustrator 25.3.0, SVG Export Plug-In . SVG Version: 6.00 Build 0)  -->
<svg version="1.1" id="Layer_1" xmlns="http://www.w3.org/2000/svg" xmlns:xlink="http://www.w3.org/1999/xlink" x="0px" y="0px"
	 viewBox="0 0 1061.37 621.66" style="enable-background:new 0 0 1061.37 621.66;" xml:space="preserve">
<style type="text/css">
	.st0{fill:#004475;}
	.st1{fill:#F9A01B;}
	.st2{clip-path:url(#SVGID_2_);fill:#F9A01B;}
</style>
<g>
	<path class="st0" d="M385.03,544.59c-15.34,0-28.16,12.6-28.16,27.87c0,15.27,12.88,27.86,28.16,27.86
		c15.27,0,28.16-12.59,28.16-27.86C413.19,557.19,400.31,544.59,385.03,544.59L385.03,544.59z M385.03,547.82
		c13.47,0,24.71,11.24,24.71,24.64c0,13.32-11.24,24.63-24.71,24.63c-13.54,0-24.71-11.24-24.71-24.63
		C360.33,559.06,371.49,547.82,385.03,547.82L385.03,547.82z M437,568.63c8.14,0,13.11,7.06,13.11,14.7
		c0,7.42-5.19,13.98-12.97,13.98c-8,0-13.26-5.84-13.26-13.62C423.89,575.69,428.5,568.63,437,568.63L437,568.63z M424.11,566.34
		h-3.23v52.71h3.23v-25.2h0.14c2.74,4.25,7.71,6.47,12.82,6.47c10.01,0,16.27-7.33,16.27-17.06c0-9.73-6.26-17.65-16.42-17.65
		c-4.9,0-10.23,2.44-12.68,6.69h-0.14V566.34L424.11,566.34z M490.28,583.25c0.07-9.57-5.9-17.64-15.98-17.64
		c-9.73,0-16.13,7.99-16.13,17.28c0,9.44,6.26,17.43,16.13,17.43c6.56,0,11.89-3.23,14.91-9l-2.73-1.58
		c-2.38,4.47-6.56,7.57-11.74,7.57c-7.71,0-13.54-5.62-13.33-14.06H490.28L490.28,583.25z M461.4,580.24
		c0.58-6.27,6.2-11.61,12.97-11.61c6.84,0,11.89,5.48,12.68,11.61H461.4L461.4,580.24z M500.41,566.34h-3.23v33.27h3.23v-16.42
		c0-6.78,1.37-14.55,9.73-14.55c7.28,0,8,4.9,8,10.87v20.1h3.23v-20.1c0-8.57-2.37-13.89-10.94-13.89c-4.32,0-7.93,2.23-9.87,5.9
		h-0.14V566.34L500.41,566.34z M581.23,552.21c-2.59-4.68-7.78-7.62-13.25-7.62c-8.14,0-13.9,5.68-13.9,13.75
		c0,4.32,2.01,7.49,5.61,9.72l9.8,5.19c4.69,2.31,10.95,4.89,10.95,11.02c0,7.21-6.26,12.82-13.4,12.82c-6.56,0-10.8-4.03-13.1-9.79
		l-3.03,1.37c2.52,6.99,8.42,11.66,15.98,11.66c8.79,0,16.99-6.76,16.99-15.76c0-4.9-2.08-8.21-6.18-10.8l-10.38-5.4
		c-4.4-2.09-9.8-4.47-9.8-10.16s4.4-10.37,10.23-10.37c5.11,0,8.57,2.52,11.02,6.41L581.23,552.21L581.23,552.21z M606.47,565.62
		c-9.65,0-17.28,7.84-17.28,17.43c0,9.44,7.7,17.28,17.28,17.28c9.8,0,17.5-7.48,17.5-17.35
		C623.96,573.1,616.27,565.62,606.47,565.62L606.47,565.62z M606.25,568.63c8.22,0,14.49,6.19,14.49,14.41
		c0,8.07-6.34,14.27-14.49,14.27c-7.85,0-13.83-6.7-13.83-14.27C592.42,575.34,598.33,568.63,606.25,568.63L606.25,568.63z
		 M651.36,566.34v18.8c0,6.41-0.72,12.17-8.72,12.17c-8,0-8.72-5.77-8.72-12.17v-18.8h-3.24v19.95c0,3.38-0.07,6.77,2.01,9.57
		c2.31,3.02,6.19,4.46,9.94,4.46c3.74,0,7.64-1.43,9.94-4.46c2.08-2.81,2.01-6.19,2.01-9.57v-19.95H651.36L651.36,566.34z
		 M667.16,566.34h-3.23v33.27h3.23v-17c0-4.89-0.43-13.97,6.85-13.97c0.86,0,1.51,0.21,2.3,0.65l1.73-2.87
		c-1.16-0.5-2.24-0.79-3.53-0.79c-3.53,0-5.91,2.01-7.21,5.03h-0.14V566.34L667.16,566.34z M707.19,569.71
		c-3.31-2.8-7.27-4.1-11.59-4.1c-9.8,0-17.13,7.63-17.13,17.28c0,9.72,7.19,17.42,17.06,17.42c4.47,0,8.71-1.65,12.1-4.6v-4.39
		c-3.02,3.67-7.49,5.98-12.24,5.98c-7.85,0-13.68-6.85-13.68-14.41c0-7.56,5.91-14.27,13.76-14.27c4.75,0,8.57,1.95,11.74,5.4
		V569.71L707.19,569.71z M744.14,583.25c0.07-9.57-5.89-17.64-15.98-17.64c-9.72,0-16.13,7.99-16.13,17.28
		c0,9.44,6.26,17.43,16.13,17.43c6.56,0,11.89-3.23,14.91-9l-2.73-1.58c-2.37,4.47-6.55,7.57-11.74,7.57
		c-7.71,0-13.54-5.62-13.33-14.06H744.14L744.14,583.25z M715.26,580.24c0.58-6.27,6.2-11.61,12.97-11.61
		c6.84,0,11.89,5.48,12.68,11.61H715.26L715.26,580.24z M816.31,551.64c-4.83-4.47-11.45-7.05-18-7.05
		c-15.42,0-28.37,12.52-28.37,27.94c0,15.2,13.17,27.79,28.3,27.79c6.7,0,12.97-2.51,18.08-6.76v-4.75
		c-4.03,4.89-11.95,8.28-18.22,8.28c-6.41,0-12.89-3.17-17.43-7.49c-4.54-4.47-7.27-10.45-7.27-16.79c0-13.33,11.16-25,24.7-25
		c6.7,0,14.05,3.46,18.22,8.57V551.64L816.31,551.64z M838.99,565.62c-9.65,0-17.28,7.84-17.28,17.43c0,9.44,7.7,17.28,17.28,17.28
		c9.8,0,17.5-7.48,17.5-17.35C856.48,573.1,848.79,565.62,838.99,565.62L838.99,565.62z M838.77,568.63
		c8.21,0,14.48,6.19,14.48,14.41c0,8.07-6.34,14.27-14.48,14.27c-7.85,0-13.83-6.7-13.83-14.27
		C824.94,575.34,830.85,568.63,838.77,568.63L838.77,568.63z M866.9,566.34h-3.23v33.27h3.23v-18.29c0-5.41,1.3-12.68,8.29-12.68
		c6.48,0,7.42,5.26,7.42,10.44v20.53h3.23v-19.16c0-5.76,1.66-11.81,8.58-11.81c6.34,0,7.13,4.54,7.13,9.65v21.32h3.24v-20.89
		c0-7.27-1.73-13.1-10.3-13.1c-4.25,0-7.93,2.09-9.72,6.04c-1.72-3.89-5.11-6.04-9.36-6.04c-3.53,0-6.85,1.8-8.36,4.89h-0.14V566.34
		L866.9,566.34z M930.64,568.63c8.14,0,13.11,7.06,13.11,14.7c0,7.42-5.18,13.98-12.97,13.98c-8,0-13.25-5.84-13.25-13.62
		C917.53,575.69,922.14,568.63,930.64,568.63L930.64,568.63z M917.75,566.34h-3.23v52.71h3.23v-25.2h0.14
		c2.74,4.25,7.71,6.47,12.82,6.47c10.02,0,16.28-7.33,16.28-17.06c0-9.73-6.26-17.65-16.42-17.65c-4.89,0-10.23,2.44-12.68,6.69
		h-0.14V566.34L917.75,566.34z M967.86,568.63c8.07,0,13.33,6.05,13.33,13.76c0,8-4.61,14.91-13.11,14.91
		c-8.07,0-13.12-6.92-13.12-14.55C954.96,575.55,960.23,568.63,967.86,568.63L967.86,568.63z M984.21,566.34h-3.23v5.76h-0.14
		c-2.81-4.18-7.71-6.48-12.83-6.48c-10.01,0-16.27,7.41-16.27,17.14c0,9.72,6.33,17.57,16.42,17.57c4.9,0,10.23-2.44,12.68-6.69
		h0.14v5.97h3.23V566.34L984.21,566.34z M997.16,566.34h-3.23v33.27h3.23v-16.42c0-6.78,1.37-14.55,9.73-14.55c7.27,0,8,4.9,8,10.87
		v20.1h3.23v-20.1c0-8.57-2.37-13.89-10.94-13.89c-4.33,0-7.93,2.23-9.87,5.9h-0.14V566.34L997.16,566.34z M1037.68,600.18
		l-7.99,18.87h3.32l22.32-52.71h-3.31l-12.74,30.1l-14.19-30.1h-3.39L1037.68,600.18L1037.68,600.18z"/>
	<path class="st1" d="M309.92,547.53c3.75,0,6.63,3.1,6.63,6.77c0,5.47-4.9,7.78-8.72,10.8c-1.95-3.24-4.83-6.12-4.83-10.01
		C303,551.28,305.95,547.53,309.92,547.53L309.92,547.53z M329.79,599.6h3.75l-8.28-11.02l7.56-8.64l-2.66-1.44l-6.91,7.56
		l-13.39-18.29c5.26-3.61,10.15-7.21,10.15-13.4c0-5.55-4.24-10.07-9.86-10.07c-5.69,0-10.58,4.67-10.58,10.43
		c0,4.69,3.16,8.35,5.68,11.89c-7.41,4.68-16.49,10.23-16.49,19.73c0,7.86,6.19,14.34,14.18,14.34c7.06,0,13.98-4.96,20.02-10.08
		L329.79,599.6L329.79,599.6z M307.25,569.36l13.68,18.51c-5.03,4.18-11.66,9.59-18.01,9.59c-6.33,0-10.73-5.33-10.73-11.46
		c0-6.84,6.42-11.02,11.6-14.34L307.25,569.36L307.25,569.36z"/>
	<path class="st0" d="M24.13,548.54h14.04v-3.24H6.64v3.24h14.04v51.06h3.45V548.54L24.13,548.54z M43.55,540.19v59.41h3.23v-16.42
		c0-6.77,1.37-14.55,9.73-14.55c7.28,0,8,4.9,8,10.87v20.1h3.23v-20.1c0-8.57-2.37-13.89-10.94-13.89c-4.32,0-7.93,2.23-9.87,5.9
		h-0.14v-31.32H43.55L43.55,540.19z M107.29,583.25c0.07-9.57-5.9-17.64-15.98-17.64c-9.73,0-16.13,7.99-16.13,17.28
		c0,9.44,6.26,17.43,16.13,17.43c6.56,0,11.89-3.23,14.91-9l-2.73-1.58c-2.38,4.47-6.56,7.57-11.74,7.57
		c-7.71,0-13.54-5.62-13.33-14.06H107.29L107.29,583.25z M78.41,580.24c0.58-6.27,6.2-11.61,12.97-11.61
		c6.84,0,11.89,5.48,12.68,11.61H78.41L78.41,580.24z M139.77,545.31h-3.45v54.3h17.28v-3.23h-13.83V545.31L139.77,545.31z
		 M162.78,566.34h-3.23v33.27h3.23V566.34L162.78,566.34z M161.2,552.29c-1.65,0-2.95,1.37-2.95,2.95c0,1.65,1.29,2.95,2.95,2.95
		s2.95-1.29,2.95-2.95C164.15,553.66,162.85,552.29,161.2,552.29L161.2,552.29z M176.29,566.34h-3.23v33.27h3.23v-16.42
		c0-6.78,1.37-14.55,9.73-14.55c7.28,0,8,4.9,8,10.87v20.1h3.23v-20.1c0-8.57-2.37-13.89-10.94-13.89c-4.32,0-7.93,2.23-9.87,5.9
		h-0.14V566.34L176.29,566.34z M227.1,566.34v18.8c0,6.41-0.72,12.17-8.72,12.17c-8,0-8.72-5.77-8.72-12.17v-18.8h-3.23v19.95
		c0,3.38-0.07,6.77,2.01,9.57c2.3,3.02,6.19,4.46,9.94,4.46c3.75,0,7.64-1.43,9.94-4.46c2.08-2.81,2.01-6.19,2.01-9.57v-19.95H227.1
		L227.1,566.34z M248.2,582.03l-13.54,17.57h3.82l11.81-15.27l11.88,15.27h3.82l-13.54-17.57l12.38-15.69h-3.89l-10.66,13.46
		l-10.58-13.46h-3.89L248.2,582.03L248.2,582.03z"/>
	<path class="st0" d="M292.77,93.64c0,0,0,10.88,10.88,10.88h101.97c0,0,10.88,0,10.88,10.88v201.8c0,0,0,10.7,10.7,10.7h27.94
		c0,0,10.88,0,10.88-10.88V115.4c0,0,0-10.88,10.88-10.88h103.78c0,0,5.35,0,5.35-5.35V76.68c0,0,0-10.88-10.88-10.88H303.47
		c0,0-10.7,0-10.7,10.7V93.64L292.77,93.64z"/>
	<path class="st0" d="M359.05,317.83L209.51,69.64c0,0-2.76-4.58-8.11-4.58h-19.88c0,0-10.88,0-16.52,9.3L17.15,318.01
		c0,0-5.55,9.15,5.15,9.15h31.28c0,0,10.88,0,16.35-9.41l32.99-56.76h137.67c10.88,0,5.44-9.42,5.44-9.42l-11.96-20.73
		c-5.35-9.27-16.04-9.27-16.04-9.27h-92.2l57.58-99.07c0,0,5.47-9.41,10.86,0.04l111.49,195.33c0,0,5.3,9.29,16,9.29h32.02
		C353.79,327.15,364.67,327.15,359.05,317.83L359.05,317.83z"/>
	<path class="st0" d="M631.03,316.27c0,0,0,10.88,10.88,10.88h27.76c0,0,10.88,0,10.88-10.88V75.94c0,0,0-10.88-10.88-10.88h-27.76
		c0,0-10.88,0-10.88,10.88V316.27L631.03,316.27z"/>
	<g>
		<defs>
			<rect id="SVGID_1_" width="1061.37" height="621.66"/>
		</defs>
		<clipPath id="SVGID_2_">
			<use xlink:href="#SVGID_1_"  style="overflow:visible;"/>
		</clipPath>
		<path class="st2" d="M631.03,35.07c0,0,0,10.88,10.88,10.88h27.76c0,0,10.88,0,10.88-10.88V13.49c0,0,0-10.88-10.88-10.88h-27.76
			c0,0-10.88,0-10.88,10.88V35.07L631.03,35.07z"/>
		<path class="st2" d="M772.08,335.1c0,0-43.25-0.53-52.71-0.67c-9.47-0.14-16.04,4.03-16.04,4.03
			c-329.32,250.56-593.01,34.57-593.01,34.57c348.74,271.03,665.79-33.05,665.79-33.05S780.71,335.04,772.08,335.1L772.08,335.1z"/>
	</g>
	<path class="st0" d="M1052.48,33.76c-2.55,0-5.27,0-6.3,0.01c-2.14,0.02-3.53,1.39-3.53,1.39L893.87,168.77L794.2,72.61
		c0,0-7.83-7.55-18.71-7.55h-47.19c0,0-10.88,0-3.11,7.61l131.86,129.18L725.84,319.67c-8.09,7.27,2.79,7.27,2.79,7.27H780
		c10.88,0,18.21-8.04,18.21-8.04s37.76-41.44,84.09-92.29l94.85,92.93c0,0,7.77,7.61,18.65,7.61h51.37c0,0,10.88,0,3.05-7.55
		L915.76,189.88c65.66-72.08,134.61-147.8,135.79-149.2C1054.84,36.78,1058.02,33.75,1052.48,33.76L1052.48,33.76z"/>
</g>
</svg>
